<?xml version="1.0" encoding="UTF-8" standalone="no"?>
<!-- Created with Inkscape (http://www.inkscape.org/) -->

<svg
   xmlns:dc="http://purl.org/dc/elements/1.1/"
   xmlns:cc="http://creativecommons.org/ns#"
   xmlns:rdf="http://www.w3.org/1999/02/22-rdf-syntax-ns#"
   xmlns:svg="http://www.w3.org/2000/svg"
   xmlns="http://www.w3.org/2000/svg"
   version="1.1"
   width="626.71478"
   height="200"
   viewBox="0 0 501.37183 160"
   id="svg2">
  <metadata
     id="metadata38">
    <rdf:RDF>
      <cc:Work
         rdf:about="">
        <dc:format>image/svg+xml</dc:format>
        <dc:type
           rdf:resource="http://purl.org/dc/dcmitype/StillImage" />
        <dc:title></dc:title>
      </cc:Work>
    </rdf:RDF>
  </metadata>
  <defs
     id="defs36" />
  <path
     d="m 0,0 501.37184,0 0,160 L 0,160 0,0 z"
     id="path4"
     style="fill:#ffffff" />
  <path
     d="m 79.433935,7.21733 c 2.590614,0.0375 5.172563,-0.41878 7.760288,-0.0982 9.70686,0.19639 19.416607,2.35957 28.207937,6.52707 0.85488,0.42456 1.71264,0.84622 2.56174,1.28521 5.44982,2.8621 10.50108,6.4722 15.01516,10.65126 2.63104,2.19206 4.86643,4.79423 7.12203,7.35307 3.35017,3.95957 6.30469,8.25993 8.72201,12.85198 0.43033,0.85199 0.85777,1.70686 1.2852,2.56174 4.10109,8.69603 6.3047,18.2787 6.50686,27.88159 0.32636,2.69747 -0.0866,5.39783 -0.078,8.09819 -0.57184,8.72491 -2.67438,17.3834 -6.42889,25.29675 -0.42743,0.85776 -0.85487,1.71264 -1.28808,2.56462 -2.41444,4.59784 -5.37473,8.8982 -8.72491,12.86065 -2.25271,2.55307 -4.48521,5.14946 -7.10759,7.33863 -4.51696,4.18195 -9.57111,7.79206 -15.02382,10.65704 -0.8491,0.43899 -1.70686,0.86065 -2.56174,1.2852 -8.77689,4.15884 -18.469308,6.3278 -28.164615,6.52419 -2.602165,0.30036 -5.204332,-0.1213 -7.806498,-0.0953 -8.724909,-0.57762 -17.392057,-2.65993 -25.29964,-6.43177 -0.147291,-0.0722 -0.441876,-0.21372 -0.589169,-0.28592 -0.661371,-0.32924 -1.319855,-0.66137 -1.975451,-0.99928 -5.458484,-2.86209 -10.512635,-6.48375 -15.038267,-10.66281 -1.897473,-1.626 -3.664982,-3.40795 -5.288087,-5.30831 -4.132852,-4.47653 -7.68231,-9.49314 -10.529964,-14.88231 -0.436101,-0.85198 -0.86065,-1.70686 -1.288086,-2.56173 -3.757401,-7.91624 -5.85704,-16.57762 -6.428881,-25.30541 0.01444,-2.68015 -0.421661,-5.35741 -0.08375,-8.03755 0.202165,-9.62022 2.4,-19.22311 6.512635,-27.93646 0.427436,-0.85488 0.854873,-1.71263 1.288086,-2.56462 2.873647,-5.44982 6.483754,-10.50975 10.662816,-15.03249 2.192058,-2.61661 4.782672,-4.8491 7.33574,-7.09892 3.962455,-3.3473 8.254152,-6.31914 12.854874,-8.71914 0.849098,-0.43898 1.706859,-0.86353 2.564621,-1.28519 7.91047,-3.76896 16.580505,-5.85704 25.305415,-6.43177 z"
     id="path6"
     style="fill:#842e88" />
  <path
     d="m 57.926354,18.98051 c 7.041155,-3.17979 14.68592,-4.92997 22.379784,-5.40651 3.543681,-0.0462 7.098916,-0.15595 10.631046,0.12709 4.86065,0.43032 9.683756,1.35739 14.339356,2.84187 0.28881,0.0982 0.57761,0.1935 0.8722,0.28592 1.84259,0.6556 3.66787,1.36029 5.45559,2.15163 6.2787,2.85053 12.05776,6.75811 17.12925,11.41949 2.21227,2.21228 4.52851,4.33791 6.50397,6.76968 2.80433,3.27509 5.24765,6.85342 7.35884,10.61083 0.7018,1.33429 1.38051,2.68014 2.02744,4.04332 0.98772,2.16895 1.83394,4.39855 2.5935,6.65704 2.26715,7.12491 3.25487,14.62527 3.00361,22.09097 0.0144,6.41155 -1.09748,12.80578 -3.00361,18.92274 -0.75956,2.26138 -1.60578,4.49098 -2.5935,6.65993 -0.64693,1.36318 -1.32564,2.70903 -2.02744,4.04332 -3.00939,5.3574 -6.7148,10.34513 -11.10181,14.65416 -5.66642,5.90036 -12.43899,10.74945 -19.89025,14.14296 -1.78772,0.79422 -3.613,1.49314 -5.45271,2.1574 -5.46426,1.82238 -11.168226,2.88808 -16.909743,3.25198 -2.986281,0.0664 -5.972563,0.0635 -8.958845,0 -7.688086,-0.48231 -15.324187,-2.23249 -22.356678,-5.4065 -1.475812,-0.69025 -2.925632,-1.42671 -4.369676,-2.17761 -4.537184,-2.53863 -8.771119,-5.60578 -12.61805,-9.10036 -2.310469,-2.30759 -4.724909,-4.52852 -6.784115,-7.07004 -2.743683,-3.23466 -5.146571,-6.75235 -7.220217,-10.45199 -0.759567,-1.43826 -1.493141,-2.89386 -2.180505,-4.36967 -3.997113,-8.88664 -5.776174,-18.70325 -5.446932,-28.42166 0.02311,-8.67004 1.914802,-17.3343 5.446932,-25.25632 0.690252,-1.47582 1.420938,-2.92852 2.180505,-4.36967 2.524188,-4.54008 5.6,-8.76246 9.088808,-12.60651 2.267148,-2.26425 4.43899,-4.63826 6.928521,-6.65993 3.272201,-2.80432 6.850541,-5.24187 10.605053,-7.35595 1.444044,-0.75379 2.896751,-1.48736 4.369676,-2.17761 z"
     id="path8"
     style="fill:#ffffff" />
  <path
     d="m 91.254874,22.73791 c 2.316245,-0.30614 4.6787,-0.72491 7.012274,-0.31481 3.150902,0.2195 6.362462,1.27077 8.667142,3.50903 2.53574,2.70036 3.57835,6.53285 3.39351,10.17473 0.17617,4.11552 -0.86354,8.1935 -2.37979,11.99423 -1.29675,2.83032 -2.81299,5.78194 -5.43826,7.59855 -1.05704,0.77978 -2.44333,0.7769 -3.633215,0.32924 -1.368954,-0.90397 -2.489532,-2.18628 -3.122022,-3.70542 0.693141,-0.8953 1.625993,-1.55668 2.437545,-2.34223 2.564622,-2.5213 4.932852,-5.29675 6.579062,-8.51985 1.79639,-3.81518 2.60794,-8.45344 0.71624,-12.39279 -1.32562,-2.8361 -4.53718,-4.387 -7.581222,-4.28303 -2.651264,-0.16173 -5.279423,0.43321 -7.673647,1.55379 -3.353069,1.73574 -6.033213,4.5574 -7.838268,7.85271 -2.613717,4.6296 -3.763176,9.94079 -4.124187,15.20288 0.0029,1.72708 -0.02022,3.45705 0.01155,5.18412 0.233935,2.69459 0.675812,5.37762 1.496029,7.96246 1.198557,3.56101 3.243322,6.8361 6.096751,9.30252 -2.905415,0.28015 -5.67509,1.32275 -8.34657,2.4491 -10.368231,4.7769 -18.293141,14.67726 -20.412997,25.92635 -1.051263,5.18123 -0.412996,10.69459 1.862816,15.47148 2.021661,4.06065 5.750181,7.32419 10.229603,8.31769 5.617329,1.27076 11.535018,0.0578 16.696029,-2.33068 0.387003,-0.19639 0.774007,-0.38989 1.161011,-0.58051 3.647653,-1.94079 7.032491,-4.40433 9.920578,-7.36462 5.028164,-4.82599 8.927074,-10.7639 11.688094,-17.14657 0.24259,-0.56606 0.46787,-1.1379 0.71335,-1.70108 1.49603,-4.05776 2.74369,-8.26282 3.06426,-12.59495 -5.82816,0.22816 -11.57834,1.31408 -17.279423,2.49531 0.0722,-2.38267 0.973285,-4.84332 2.911191,-6.33357 2.700362,-2.15741 6.324912,-2.49242 9.654882,-2.6195 4.361,-0.10397 8.70469,0.46209 12.99927,1.20145 2.72347,0.38411 5.4325,0.99927 8.19351,0.9675 -0.74513,1.45271 -1.66932,2.86787 -3.09893,3.73141 -1.47292,0.47076 -3.02671,0.2195 -4.54007,0.32636 -1.85703,0.12418 -3.71697,0.13862 -5.5769,0.17039 -0.47075,4.51986 -1.56245,8.96462 -3.15378,13.22166 -0.23683,0.57184 -0.4621,1.15235 -0.70181,1.72708 -0.32924,0.78556 -0.67581,1.56534 -1.02816,2.33935 -0.33501,0.66137 -0.66715,1.32563 -0.99928,1.98989 -2.65414,5.06859 -5.99855,9.81661 -10.10541,13.81372 -6.633935,6.83032 -15.381949,11.8787 -24.898196,13.1639 -5.594223,0.81444 -11.448375,0.13863 -16.626714,-2.17762 -5.059928,-2.29603 -9.28231,-6.42022 -11.523466,-11.52346 -3.072924,-6.71769 -2.593501,-14.63683 0.311914,-21.32275 5.461372,-12.64982 18.2787,-21.63177 31.956678,-22.82743 -3.341516,-2.90831 -6.229603,-6.41156 -7.950902,-10.52708 -1.467148,-3.27798 -2.090975,-6.86498 -2.26426,-10.43177 0.129963,-3.60144 0.808665,-7.2 2.223827,-10.52708 C 74.4722,30.787 82.249817,24.25415 91.254872,22.73791 z"
     id="path10"
     style="fill:#842e88" />
  <path
     d="m 170.45199,34.44043 c 0.54295,-0.17328 1.37762,-0.0404 1.50181,0.62095 0.1184,0.7249 0.0606,1.46714 0.0722,2.19782 -0.0173,25.60867 0.0144,51.22022 -0.0173,76.82889 0.18772,1.11769 -1.44983,1.5509 -2.03033,0.72202 -0.27725,-0.78556 -0.12708,-1.64621 -0.16173,-2.46065 0.009,-25.51913 0,-51.03827 0.003,-76.5574 0.003,-0.49964 0.0231,-1.21589 0.6325,-1.35163 z"
     id="path12"
     style="fill:#6a016f" />
  <path
     d="m 429.88014,34.45199 c 0.73647,-0.31192 1.72708,0.16462 1.58845,1.05704 0.0202,26.19494 0.0202,52.39278 0,78.58483 0.15885,0.9935 -1.06281,1.42961 -1.78772,0.96174 -0.43899,-0.25993 -0.37257,-0.826 -0.40433,-1.25343 -0.006,-3.30686 0.006,-6.61372 0,-9.92058 -1.68376,3.69675 -4.35813,7.05271 -8.00289,8.96173 -4.71914,2.50108 -10.3278,2.82455 -15.51769,1.95812 -4.48231,-0.76823 -8.69025,-3.2231 -11.34441,-6.94584 -1.99855,-2.78701 -3.40794,-6.00145 -4.10974,-9.35452 -0.53719,-2.46931 -0.39568,-5.00794 -0.41011,-7.5148 0,-5.30253 0,-10.60216 0,-15.90469 -0.026,-2.53574 0.41877,-5.06859 1.27653,-7.45415 1.45271,-4.05199 3.84693,-7.92491 7.48303,-10.3509 4.34368,-2.95452 9.83683,-3.60722 14.96029,-3.11625 4.30614,0.40145 8.59206,2.08231 11.63899,5.21877 1.71552,1.70686 2.97762,3.80072 4.02311,5.96679 0.009,-9.85704 0,-19.71408 0.006,-29.56823 0.003,-0.4852 0.0202,-1.16679 0.60072,-1.32563 z"
     id="path14"
     style="fill:#6a016f" />
  <path
     d="m 199.41372,54.22961 c 5.12924,-0.59206 10.63971,-0.0664 15.1018,2.72057 3.45993,2.13141 5.92636,5.57401 7.43105,9.30253 1.12346,2.70036 1.76462,5.61444 1.7704,8.54585 0.006,6.35667 -0.003,12.71335 0.003,19.07003 0.0866,5.10614 -1.64621,10.19784 -4.68448,14.28448 -2.82744,3.80361 -7.30397,6.16029 -11.95957,6.78411 -4.85776,0.6556 -10.03898,0.30325 -14.45487,-1.97545 -3.3444,-1.71263 -5.96679,-4.6296 -7.63322,-7.96823 -1.69241,-3.24621 -2.75811,-6.86498 -2.74656,-10.5444 -0.006,-6.45776 0,-12.91264 -0.003,-19.36751 -0.0462,-5.02527 1.78484,-9.97545 4.7307,-14.00722 2.91407,-3.95379 7.61588,-6.30759 12.44476,-6.84476 z"
     id="path16"
     style="fill:#6a016f" />
  <path
     d="m 234.28448,54.90252 c 0.10974,-0.69891 0.99061,-0.97906 1.60577,-0.83754 0.40723,0.21083 0.51985,0.7018 0.68737,1.09747 6.1574,18.4982 12.32347,36.99639 18.48953,55.49459 6.21227,-18.61083 12.39278,-37.23321 18.61949,-55.83827 0.16462,-1.07725 1.65198,-0.96173 2.09098,-0.16462 0.15884,0.36968 -0.0347,0.76823 -0.11264,1.13791 -6.51263,19.50325 -13.00794,39.01227 -19.52057,58.51552 -0.12708,1.13791 -1.90903,1.26209 -2.11119,0.10686 -6.39423,-19.08448 -12.73647,-38.18917 -19.12203,-57.27653 -0.23105,-0.73936 -0.56318,-1.45849 -0.62671,-2.23539 z"
     id="path18"
     style="fill:#6a016f" />
  <path
     d="m 295.28375,57.02238 c 4.55451,-2.89386 10.22094,-3.4166 15.47148,-2.75235 4.41589,0.55741 8.71913,2.60506 11.587,6.06788 2.54152,3.0787 4.20218,6.85343 4.99062,10.75523 0.21083,1.4065 0.48231,2.85343 0.26282,4.27148 -0.20795,0.64693 -0.98484,0.57473 -1.51625,0.59495 -12.5574,-0.009 -25.11191,0 -37.66642,-0.003 -0.003,4.91263 -0.003,9.82527 0,14.7379 0.0173,2.80723 -0.16462,5.66065 0.54874,8.40723 1.08303,4.32635 3.39061,8.56317 7.19133,11.06425 4.01732,2.6686 9.07148,3.18556 13.77039,2.69748 4.13286,-0.41877 8.22816,-2.21228 10.93431,-5.43538 3.05559,-3.59278 4.56606,-8.33502 4.65848,-13.01372 -0.11553,-1.32274 2.31913,-1.31986 2.15162,0.0231 0.052,2.99205 -0.6787,5.96389 -1.84838,8.70469 -1.40649,3.32419 -3.49458,6.45776 -6.47508,8.56606 -3.70831,2.6917 -8.41012,3.61011 -12.91841,3.51769 -4.3408,-0.0491 -8.81445,-1.12924 -12.29171,-3.83249 -3.20577,-2.43466 -5.29386,-6.03899 -6.64836,-9.77328 -0.82022,-2.29603 -1.27365,-4.7278 -1.27365,-7.17112 -0.006,-6.54441 -0.006,-13.08881 0,-19.63322 -0.003,-2.66281 0.49675,-5.31985 1.44404,-7.80649 1.50758,-3.95957 3.98267,-7.70253 7.62743,-9.98701 z"
     id="path20"
     style="fill:#6a016f" />
  <path
     d="m 337.94368,54.86209 c 0.0144,-1.161 2.11409,-1.13502 2.12564,0.0144 0.0953,3.49169 0.009,6.98916 0.0404,10.48086 1.30541,-2.81011 3.09025,-5.45848 5.56245,-7.37617 4.58628,-3.63322 10.78123,-4.40145 16.43899,-3.76895 4.68448,0.49675 9.2852,2.64259 12.27148,6.35378 3.38195,4.22816 5.25632,9.67221 5.11481,15.09026 -0.0145,12.81733 0.0173,25.63465 -0.0173,38.45198 0.16751,1.07726 -1.2852,1.46137 -1.95234,0.81444 -0.27726,-0.41299 -0.22238,-0.93285 -0.2426,-1.40072 0.0144,-12.72202 0,-25.44115 0.009,-38.16318 0.0491,-2.84476 -0.47365,-5.69819 -1.57113,-8.32635 -1.37184,-3.41372 -3.70252,-6.52996 -6.92274,-8.38411 -3.62455,-2.12564 -7.96245,-2.6426 -12.09242,-2.36245 -3.57834,0.23971 -7.19422,1.33717 -10.00145,3.63032 -3.24332,2.6166 -5.21588,6.5213 -6.12274,10.52996 -0.63249,2.65993 -0.45054,5.41227 -0.47364,8.1213 -0.0116,11.83827 0.0144,23.67653 -0.0144,35.5148 0.12707,0.8722 -0.82022,1.38051 -1.56534,1.08014 -0.60939,-0.14729 -0.62094,-0.86642 -0.62384,-1.36317 0,-18.67726 0,-37.3574 0,-56.03466 0.009,-0.96751 -0.052,-1.93791 0.0375,-2.90253 z"
     id="path22"
     style="fill:#6a016f" />
  <path
     d="m 460.99061,54.05632 c 4.79423,-0.25704 9.85704,0.54296 13.85993,3.35307 4.1704,2.89386 6.70036,7.62455 7.91336,12.45631 0.78556,3.03249 0.56317,6.1834 0.59494,9.27943 0,4.90108 -0.003,9.80216 0,14.70036 0.0347,2.44909 -0.31191,4.90397 -1.07148,7.23465 -1.41516,4.38412 -3.98845,8.58051 -7.94223,11.09314 -4.61806,2.96029 -10.38845,3.48015 -15.71697,2.78123 -4.74513,-0.61227 -9.3083,-3.02382 -12.13285,-6.93718 -2.87076,-4.00867 -4.66715,-8.88953 -4.61805,-13.85127 0,-4.71913 0,-9.43826 0,-14.1574 0.052,-3.587 -0.28304,-7.25776 0.76245,-10.74657 1.2621,-4.34657 3.50325,-8.60072 7.1509,-11.40216 3.1769,-2.47798 7.21733,-3.60722 11.2,-3.80361 z"
     id="path24"
     style="fill:#6a016f" />
  <path
     d="m 199.11336,56.49964 c 4.91841,-0.6787 10.27003,-0.25126 14.53863,2.49242 4.0491,2.59639 6.48375,7.11913 7.44837,11.73141 0.54296,2.47509 0.39855,5.02238 0.41589,7.5379 0,5.29675 0,10.5935 0,15.89025 0.0115,2.21228 -0.31192,4.42744 -1.00506,6.52997 -1.2592,3.85559 -3.55812,7.53213 -7.07003,9.69531 -4.18196,2.59927 -9.35163,3.01516 -14.1343,2.4 -4.20505,-0.54585 -8.27437,-2.63683 -10.80434,-6.09387 -1.88014,-2.5444 -3.13646,-5.53935 -3.7314,-8.64115 -0.41877,-2.13719 -0.32347,-4.32058 -0.32924,-6.48087 -0.003,-4.42744 -0.003,-8.85198 0,-13.27942 0.0173,-2.51264 -0.12997,-5.05415 0.40722,-7.52924 0.83177,-3.92491 2.66281,-7.76318 5.71264,-10.44332 2.374,-2.11409 5.42959,-3.33864 8.55162,-3.80939 z"
     id="path26"
     style="fill:#ffffff" />
  <path
     d="m 295.1769,59.81516 c 3.69964,-2.96029 8.63249,-3.81805 13.25632,-3.56101 4.0231,0.18773 8.12418,1.48159 11.11335,4.26859 3.6621,3.38195 5.50758,8.33791 5.89459,13.23033 -12.32925,0.003 -24.6556,0 -36.98484,0 0.40433,-5.24188 2.52419,-10.5935 6.72058,-13.93791 z"
     id="path28"
     style="fill:#ffffff" />
  <path
     d="m 406.78123,56.49964 c 4.92129,-0.6787 10.27581,-0.25126 14.55306,2.48664 3.89026,2.48087 6.29026,6.75812 7.38484,11.1509 0.75668,2.93719 0.51986,5.99278 0.55741,8.99351 0.003,4.90397 0,9.81083 0.003,14.71769 0.0838,5.41805 -1.91191,10.99783 -5.84838,14.79566 -3.89313,3.69098 -9.55668,4.69603 -14.74079,4.31192 -4.39567,-0.25704 -8.86064,-1.96101 -11.77473,-5.36029 -3.15668,-3.70253 -4.86353,-8.59784 -4.8231,-13.45271 0,-5.29097 0,-10.58195 0.003,-15.87004 0.0144,-2.51841 -0.12996,-5.0657 0.41299,-7.54368 0.87509,-4.11552 2.86787,-8.13863 6.18918,-10.81588 2.3018,-1.87726 5.1639,-2.96895 8.08375,-3.41372 z"
     id="path30"
     style="fill:#ffffff" />
  <path
     d="m 458.75523,56.49675 c 4.92131,-0.67581 10.27581,-0.24549 14.54729,2.50109 4.04044,2.59927 6.47221,7.11624 7.43683,11.72851 0.61227,2.85921 0.3639,5.79928 0.41588,8.69892 0,4.81155 -0.003,9.62311 0.003,14.43755 0.0867,5.18989 -1.75884,10.48953 -5.33429,14.29314 -3.43105,3.61299 -8.59206,4.96173 -13.44405,4.86931 -4.74513,0.026 -9.7444,-1.39783 -13.05704,-4.95307 -3.51191,-3.8065 -5.33718,-9.05993 -5.24476,-14.21227 0.003,-4.72202 0,-9.44116 0.003,-14.16029 0.0549,-3.16534 -0.23971,-6.38267 0.52562,-9.48737 0.88954,-3.72852 2.68304,-7.35018 5.59712,-9.90613 2.37401,-2.1112 5.42961,-3.33863 8.55162,-3.80939 z"
     id="path32"
     style="fill:#ffffff" />
</svg>
